<svg width="125" height="125" viewBox="0 0 125 125" fill="none" xmlns="http://www.w3.org/2000/svg">
	<rect width="125" height="125" rx="24" fill="#FFBE0B"/>
	<g clip-path="url(#clip0)">
		<path d="M103.422 49.922H97.327C94.0953 46.8596 89.7336 44.9784 84.9405 44.9784C79.3002 44.9784 74.2576 47.5837 70.9506 51.6533C68.4298 49.6568 65.3034 48.5529 61.9998 48.5529C58.6962 48.5529 55.5698 49.6568 53.0491 51.6533C49.742 47.5837 44.6996 44.9784 39.0592 44.9784C34.2661 44.9784 29.9044 46.8597 26.6726 49.922H20.5781C19.1543 49.922 18 51.0763 18 52.5002C18 53.924 19.1543 55.0783 20.5781 55.0783H22.8751C21.6994 57.4706 21.0377 60.1592 21.0377 63C21.0377 72.9371 29.1222 81.0216 39.0593 81.0216C48.9965 81.0216 57.0809 72.9371 57.0809 63C57.0809 60.5747 56.5981 58.2602 55.7257 56.1461C57.4262 54.5835 59.6427 53.709 62.0002 53.709C64.3576 53.709 66.5741 54.5835 68.2746 56.1461C67.402 58.2602 66.9194 60.5747 66.9194 63C66.9194 72.9371 75.0039 81.0216 84.941 81.0216C94.8781 81.0216 102.963 72.9371 102.963 63C102.963 60.1592 102.301 57.4706 101.125 55.0783H103.422C104.846 55.0783 106 53.924 106 52.5002C106 51.0763 104.846 49.922 103.422 49.922Z" fill="white"/>
	</g>
	<defs>
		<clipPath id="clip0">
			<rect width="88" height="88" fill="white" transform="translate(18 19)"/>
		</clipPath>
	</defs>
</svg>
