<svg xmlns="http://www.w3.org/2000/svg" xmlns:xlink="http://www.w3.org/1999/xlink" viewBox="0 0 268.17 214.01"><defs><style>.cls-1{fill:url(#Degradado_sin_nombre_62);}.cls-2{fill:url(#Degradado_sin_nombre_71);}.cls-3{fill:url(#Degradado_sin_nombre_82);}.cls-4{fill:#ab4b55;}.cls-5{fill:url(#Degradado_sin_nombre_92);}.cls-6{fill:#21b777;}.cls-7{fill:url(#Degradado_sin_nombre_50);}.cls-8{fill:#e5076f;}.cls-9{fill:url(#Degradado_sin_nombre_29);}.cls-10{fill:url(#Degradado_sin_nombre_40);}.cls-11{fill:url(#Degradado_sin_nombre_40-2);}</style><linearGradient id="Degradado_sin_nombre_62" x1="194.63" y1="290.63" x2="259.6" y2="191.04" gradientUnits="userSpaceOnUse"><stop offset="0" stop-color="#00b4a7"/><stop offset="1" stop-color="#12897a"/></linearGradient><linearGradient id="Degradado_sin_nombre_71" x1="217.58" y1="302.79" x2="238.45" y2="239.71" gradientUnits="userSpaceOnUse"><stop offset="0" stop-color="#f37925"/><stop offset="1" stop-color="#c65000"/></linearGradient><linearGradient id="Degradado_sin_nombre_82" x1="239.52" y1="211.56" x2="241.42" y2="284.12" gradientUnits="userSpaceOnUse"><stop offset="0" stop-color="#d6a312"/><stop offset="1" stop-color="#ffd800"/></linearGradient><linearGradient id="Degradado_sin_nombre_92" x1="288.47" y1="82.9" x2="236.77" y2="176.33" gradientUnits="userSpaceOnUse"><stop offset="0" stop-color="#21b777"/><stop offset="1" stop-color="#129300"/></linearGradient><linearGradient id="Degradado_sin_nombre_50" x1="80.24" y1="155.3" x2="231.95" y2="155.3" gradientUnits="userSpaceOnUse"><stop offset="0" stop-color="#ffc30e"/><stop offset="1" stop-color="#efab00"/></linearGradient><linearGradient id="Degradado_sin_nombre_29" x1="81.15" y1="226.99" x2="231.04" y2="226.99" gradientUnits="userSpaceOnUse"><stop offset="0" stop-color="#00a2e4"/><stop offset="1" stop-color="#007093"/></linearGradient><linearGradient id="Degradado_sin_nombre_40" x1="231.09" y1="192.34" x2="231.84" y2="192.34" gradientUnits="userSpaceOnUse"><stop offset="0" stop-color="#21b777"/><stop offset="1" stop-color="#028c4d"/></linearGradient><linearGradient id="Degradado_sin_nombre_40-2" x1="65.91" y1="188.17" x2="230.93" y2="188.17" xlink:href="#Degradado_sin_nombre_40"/></defs><title>RivasL</title><g id="Capa_2" data-name="Capa 2"><path class="cls-1" d="M236.45,218.47s-23.64,19-25,67.52c0,0-10.29,1.65-17.73,17.89C193.73,303.88,185,258.86,236.45,218.47Z" transform="translate(-65.91 -92.99)"/><path class="cls-2" d="M226.88,240.4s-9.08,18.36,7.38,49.64c0,0-13.72,4.64-13.08,17C221.18,307,208.17,277.82,226.88,240.4Z" transform="translate(-65.91 -92.99)"/><path class="cls-3" d="M235.6,229.08s-9,28.54,16.66,50c0,0-9.83,7.63-7.09,16.51C245.17,295.63,217.83,256.52,235.6,229.08Z" transform="translate(-65.91 -92.99)"/><path class="cls-4" d="M239.11,227s-3.21,5,11.58,25.33c0,0-5.47,3.67-4.08,13.27C246.61,265.59,234.85,246.27,239.11,227Z" transform="translate(-65.91 -92.99)"/><path class="cls-5" d="M334.09,93s-47.41,1.24-74.86,11.22c0,0-41.41-14.87-43.8,27.59,0,0,5.57-26,26.31-24.27,0,0,18.77,1.53,1.58,16.21,0,0-31.18,29.65,27.42,46.89C270.74,170.63,215.54,101.69,334.09,93Z" transform="translate(-65.91 -92.99)"/><circle class="cls-6" cx="178.4" cy="21.84" r="1.27"/><path class="cls-7" d="M128.57,165c80.17-18.15,103.27,23.27,103.27,23.27l-1.33.77,1.44-.16S225,118.22,80.24,121.68C80.24,121.68,97.49,145.47,128.57,165Z" transform="translate(-65.91 -92.99)"/><path class="cls-8" d="M223.94,149.43s30.14,49.19,22.52,75.86c0,0,23.55-21.82,23.9-43.65C270.36,181.64,245.07,183,223.94,149.43Z" transform="translate(-65.91 -92.99)"/><path class="cls-9" d="M231,194.92S173,154.08,81.15,266.09C81.15,266.09,178.78,274.24,231,194.92Z" transform="translate(-65.91 -92.99)"/><path class="cls-10" d="M231.09,192.72l.75-.43-.2-.33C231.46,192.22,231.27,192.47,231.09,192.72Z" transform="translate(-65.91 -92.99)"/><path class="cls-11" d="M230.93,190.9c-6.16-8.85-45.55-55.11-165,.33,0,0,26.2,15.45,63.5,20.71C188.18,168.17,224.6,187,230.93,190.9Z" transform="translate(-65.91 -92.99)"/></g></svg>