<svg width="125" height="125" viewBox="0 0 125 125" fill="none" xmlns="http://www.w3.org/2000/svg">
	<rect width="125" height="125" rx="24" fill="#3A86FF"/>
	<path d="M69.5166 31.8334H61.3166C60.1837 31.8334 59.2666 32.7504 59.2666 33.8834C59.2666 35.0163 60.1837 35.9334 61.3166 35.9334H69.5166C70.6496 35.9334 71.5666 35.0163 71.5666 33.8834C71.5666 32.7504 70.6496 31.8334 69.5166 31.8334Z" fill="white"/>
	<path d="M78.3999 25H45.5999C41.079 25 37.3999 28.6791 37.3999 33.2V98.8C37.3999 103.321 41.079 107 45.5999 107H78.3999C82.9208 107 86.5999 103.321 86.5999 98.8V33.2C86.5999 28.6791 82.9208 25 78.3999 25ZM82.4999 98.8C82.4999 101.065 80.6645 102.9 78.3999 102.9H45.5999C43.3353 102.9 41.4999 101.065 41.4999 98.8V33.2C41.4999 30.9354 43.3353 29.1 45.5999 29.1H78.3999C80.6645 29.1 82.4999 30.9354 82.4999 33.2V98.8Z" fill="white"/>
	<path d="M61.9999 100.167C64.2643 100.167 66.0999 98.331 66.0999 96.0667C66.0999 93.8023 64.2643 91.9667 61.9999 91.9667C59.7355 91.9667 57.8999 93.8023 57.8999 96.0667C57.8999 98.331 59.7355 100.167 61.9999 100.167Z" fill="white"/>
	<path d="M54.4833 35.9334C55.6155 35.9334 56.5333 35.0156 56.5333 33.8834C56.5333 32.7512 55.6155 31.8334 54.4833 31.8334C53.3512 31.8334 52.4333 32.7512 52.4333 33.8834C52.4333 35.0156 53.3512 35.9334 54.4833 35.9334Z" fill="white"/>
</svg>
