<svg width="125" height="125" viewBox="0 0 125 125" fill="none" xmlns="http://www.w3.org/2000/svg">
	<rect width="125" height="125" rx="24" fill="#02A49D"/>
	<g clip-path="url(#clip0)">
		<path d="M61.9995 81.974C56.7083 81.974 51.5326 80.1385 47.4254 76.8052L28.9572 61.817C21.4791 55.9647 21.4801 43.9725 28.9572 38.121L47.4254 23.1328C55.6173 16.289 68.3819 16.2894 76.5736 23.1328L95.0419 38.121C99.7614 41.9512 101.757 48.2142 100.127 54.0767C99.6064 55.948 97.6686 57.0435 95.7961 56.5228C93.9247 56.0025 92.8296 54.0636 93.3502 52.1921C94.2301 49.0277 93.1544 45.6484 90.6092 43.5828L72.1409 28.5944C66.2646 23.8255 57.7344 23.8255 51.8581 28.5944L33.3898 43.5828C29.3579 46.7383 29.3584 53.2005 33.3898 56.3554L51.8581 71.3436C57.7242 76.1043 66.2354 76.1127 72.1108 71.3679L75.1958 68.744C76.6752 67.4856 78.8948 67.6645 80.1534 69.1442C81.4118 70.6239 81.2328 72.8435 79.7531 74.1019L76.6358 76.7533C76.6152 76.7709 76.5945 76.7882 76.5736 76.8052C72.4665 80.1385 67.2907 81.974 61.9995 81.974V81.974ZM76.5736 102.831L95.0419 87.8431C102.52 81.9907 102.519 69.9985 95.0419 64.1471L76.5736 49.1589C68.3817 42.3151 55.6171 42.3154 47.4254 49.1589L44.8218 51.2944C41.3313 54.3971 45.5607 59.548 49.2823 56.7332L51.8639 54.6159C57.7404 49.8521 66.2667 49.8535 72.1409 54.6207L90.6092 69.6088C94.6411 72.7643 94.6406 79.2265 90.6092 82.3815L72.1409 97.3697C66.2646 102.139 57.7344 102.139 51.8581 97.3697L33.3898 82.3815C31.0581 80.489 29.9428 77.4735 30.4793 74.5119C30.8256 72.6006 29.5568 70.7705 27.6457 70.4243C25.7355 70.0785 23.9044 71.3466 23.558 73.2579C22.5641 78.7447 24.6328 84.3334 28.9572 87.8431L47.4254 102.831C51.5325 106.164 56.7083 108 61.9995 108C67.2907 108 72.4665 106.165 76.5736 102.831Z" fill="white"/>
	</g>
	<defs>
		<clipPath id="clip0">
			<rect width="90" height="90" fill="white" transform="translate(17 18)"/>
		</clipPath>
	</defs>
</svg>
