<svg width="125" height="125" viewBox="0 0 125 125" fill="none" xmlns="http://www.w3.org/2000/svg">
	<rect width="125" height="125" rx="24" fill="#FF006E"/>
	<g clip-path="url(#clip0)">
		<path d="M49.9983 81.5366C49.1707 85.6051 48.6334 87.5721 45.4931 87.8241C44.7192 87.8863 44.089 88.4703 43.9684 89.2371C43.8474 90.0036 44.2677 90.7534 44.9849 91.0504C45.1868 91.1339 49.9899 93.0964 55.6015 93.0967C55.6024 93.0967 55.6029 93.0967 55.6035 93.0967C59.514 93.0967 62.8686 92.1487 65.5736 90.2794C68.7792 88.0643 70.9893 84.5978 72.1643 79.98L61.3654 69.095C52.2394 70.5721 50.9465 76.8747 49.9983 81.5366Z" fill="white"/>
		<path d="M107.357 33.7319C107.067 33.4391 106.549 33.09 105.732 33.09C104.774 33.09 102.228 33.09 86.767 46.2461C79.6254 52.323 71.3913 59.841 64.8418 66.2384L75.0894 76.5675C81.8256 69.5658 89.6837 60.79 95.9331 53.2581C99.8795 48.5026 102.914 44.5786 104.952 41.5956C107.652 37.6444 108.835 35.2211 107.357 33.7319Z" fill="white"/>
		<path d="M68.1203 93.9645C64.6524 96.361 60.4411 97.5758 55.6014 97.5758C49.2313 97.5755 43.8655 95.4344 43.27 95.1886C40.6313 94.095 39.0991 91.3606 39.5437 88.5396C39.979 85.7761 42.193 83.6758 44.9585 83.3754C45.1995 82.6556 45.4661 81.3445 45.6088 80.6435C46.1346 78.0594 46.8544 74.5198 49.0687 71.3694C51.4867 67.9294 55.1316 65.7239 59.9176 64.7997C62.6643 62.0737 65.7983 59.0764 69.0686 56.0345C67.4154 55.6759 65.9371 54.5991 65.1443 52.9706C63.7794 50.1653 64.9699 46.7909 67.7995 45.4409C70.6364 44.0876 74.0391 45.2696 75.4019 48.079C75.671 48.6328 75.8373 49.2081 75.9148 49.7857C78.6271 47.3564 81.3207 44.9986 83.8636 42.8347C83.8787 42.8218 83.893 42.8095 83.9084 42.7966C81.0502 37.3272 76.9515 32.4813 71.9575 28.7709C64.7865 23.4429 56.2475 20.625 47.2646 20.6228C47.2618 20.6228 47.2598 20.6228 47.2576 20.6228C41.1952 20.6228 33.8259 22.741 28.0248 26.1518C20.9142 30.3323 16.9986 35.9232 17 41.894C17.0022 49.1026 21.0679 52.1178 24.3348 54.5403C26.9987 56.5161 29.1026 58.0763 29.1038 61.4958C29.1046 64.915 27.0018 66.4739 24.3393 68.4476C21.0735 70.8688 17.0087 73.8823 17.0109 81.0917C17.0126 87.0617 20.9307 92.654 28.0432 96.8381C33.8486 100.253 41.2218 102.376 47.2853 102.378C47.2895 102.378 47.2931 102.378 47.297 102.378C58.3011 102.378 68.6455 98.1301 76.4258 90.4174C82.2594 84.6347 86.1283 77.4225 87.7008 69.5762C83.7947 73.9075 79.8626 78.1132 76.3446 81.7048C74.8524 87.1015 72.0897 91.2217 68.1203 93.9645ZM48.0913 37.5862C48.7906 34.5427 51.8428 32.6428 54.9096 33.34C57.9721 34.0337 59.891 37.0585 59.1967 40.0978C58.4971 43.1337 55.4432 45.0338 52.3762 44.3404C49.3111 43.6505 47.3914 40.6221 48.0913 37.5862ZM29.6136 47.9586C27.6524 45.5185 28.0556 41.9671 30.5139 40.0247C32.972 38.0859 36.5531 38.4835 38.5179 40.9192C40.4748 43.3557 40.0703 46.9071 37.6139 48.8534C35.1611 50.7964 31.5744 50.3946 29.6136 47.9586ZM32.607 85.1985C30.1472 83.2545 29.7426 79.7031 31.7038 77.2638C33.6635 74.8292 37.246 74.4299 39.7055 76.3735C42.163 78.3173 42.5679 81.8689 40.6084 84.3041C38.6489 86.7434 35.0662 87.1423 32.607 85.1985Z" fill="white"/>
	</g>
	<defs>
		<clipPath id="clip0">
			<rect width="91" height="91" fill="white" transform="translate(17 16)"/>
		</clipPath>
	</defs>
</svg>
