<svg width="125" height="125" viewBox="0 0 125 125" fill="none" xmlns="http://www.w3.org/2000/svg">
	<rect width="125" height="125" rx="24" fill="#8338EC"/>
	<g clip-path="url(#clip0)">
		<path d="M83.1025 54.9845C82.9161 54.5988 82.8362 54.1696 82.8715 53.7429L84.1108 38.7648C84.2502 37.079 83.626 35.445 82.3982 34.2815C81.1707 33.118 79.504 32.5827 77.8296 32.812C76.5407 32.9888 75.2933 33.4095 74.1628 34.0435C74.0735 33.9211 73.9815 33.8003 73.8834 33.683C71.5508 30.9001 67.3895 30.5333 64.6069 32.8649L54.527 41.3009V39.4137C54.527 39.273 54.5689 39.1374 54.6483 39.0212L56.7389 35.9619C57.14 35.3749 56.9893 34.574 56.4024 34.1729C55.8151 33.7714 55.0142 33.9225 54.6133 34.5094L52.5227 37.5687C52.1498 38.1145 51.9526 38.7524 51.9526 39.4137V43.4555L43.9307 50.1693V38.0453C43.9307 36.6577 44.3445 35.3186 45.1274 34.173L52.4899 23.3982C53.0944 22.5137 54.0071 21.9174 55.0601 21.7194C56.113 21.5213 57.1798 21.7449 58.0646 22.3496C58.9492 22.9539 59.5454 23.8668 59.7434 24.9197C59.9415 25.9725 59.7179 27.0397 59.1134 27.9241L57.7625 29.9012C57.3614 30.4883 57.5123 31.2892 58.0991 31.6903C58.6857 32.0914 59.487 31.9405 59.888 31.3537L61.2388 29.3765C62.2312 27.9242 62.5986 26.1724 62.2734 24.4438C61.9482 22.7151 60.9692 21.2163 59.5169 20.224C58.0647 19.2316 56.3129 18.8642 54.584 19.1894C52.8553 19.5146 51.3567 20.4936 50.3643 21.9459L43.0018 32.7207C41.9254 34.2963 41.3563 36.1375 41.3563 38.0455V52.3241L37.4957 55.555C34.721 57.8773 33.2338 61.4172 33.5175 65.0244L34.337 75.4432C34.3901 76.1177 34.9537 76.6297 35.6189 76.6295C35.6527 76.6295 35.6869 76.6281 35.7212 76.6255C36.4298 76.5699 36.9593 75.95 36.9035 75.2415L36.084 64.8227C35.8655 62.0444 37.011 59.3179 39.1481 57.5294L66.2598 34.8388C67.9548 33.4182 70.4898 33.6417 71.9103 35.3367C73.3307 37.0318 73.1074 39.5666 71.4123 40.9872L57.2995 52.8142C56.4228 53.0262 55.5835 53.4479 54.8562 54.0807L47.9581 60.0849C47.4219 60.5517 47.3656 61.3647 47.8323 61.9009C48.2991 62.4371 49.112 62.4932 49.6485 62.0267L56.5465 56.0225C57.7462 54.9778 59.4966 54.9678 60.7085 55.9986L71.1414 64.8726C71.9575 65.5669 72.4544 66.5373 72.5405 67.6051C72.6269 68.6732 72.292 69.7107 71.5978 70.5266C71.0903 71.1232 70.4196 71.5522 69.6759 71.7716L62.3766 65.5629C60.1873 63.7006 57.0245 63.7188 54.8563 65.6058L47.9583 71.6101C47.4221 72.0769 47.3658 72.8899 47.8325 73.4261C48.2993 73.9624 49.1121 74.0185 49.6486 73.5519L56.5467 67.5476C57.7464 66.5031 59.4968 66.4928 60.7087 67.5238L71.1416 76.3978C71.9577 77.092 72.4546 78.0624 72.5407 79.1303C72.627 80.1983 72.2922 81.2358 71.598 82.0517C70.9039 82.8678 69.9335 83.3647 68.8656 83.4508C67.7962 83.5368 66.7599 83.2022 65.9442 82.5081L59.4862 77.015C58.9751 76.5802 58.2163 76.611 57.7419 77.0852L55.8254 79.0017C55.3227 79.5046 55.3227 80.3195 55.8254 80.8222C56.328 81.3247 57.1431 81.3247 57.6456 80.8222L58.7226 79.7452L64.276 84.4689C65.4775 85.4912 66.9716 86.0387 68.532 86.0387C68.7113 86.0387 68.8919 86.0313 69.0726 86.0167C70.8258 85.8753 72.419 85.0593 73.5588 83.7194C74.6986 82.3795 75.2483 80.6761 75.1067 78.9228C74.9653 77.1694 74.1494 75.5762 72.8095 74.4364L71.8499 73.6203C72.4913 73.2477 73.071 72.7675 73.5588 72.1941C75.9115 69.4283 75.5754 65.2639 72.8095 62.9111L68.1839 58.9767L70.9796 44.7081L73.0661 42.9595C74.4142 41.8299 75.2418 40.2427 75.3963 38.4903C75.4591 37.777 75.4054 37.0718 75.2457 36.3946C76.142 35.86 77.1417 35.5042 78.1795 35.3621C79.0772 35.2385 79.9698 35.526 80.6278 36.1495C81.2857 36.773 81.6202 37.6485 81.5455 38.5519L80.3062 53.5301C80.2329 54.4147 80.3987 55.3051 80.7852 56.1045L83.0773 60.845C85.9653 66.8182 86.0629 73.7152 83.3452 79.7679L81.8714 83.0501C81.5802 83.6987 81.8699 84.4605 82.5185 84.7516C82.6898 84.8285 82.8688 84.8649 83.045 84.8649C83.5362 84.8649 84.0056 84.582 84.22 84.1046L85.6938 80.8224C88.724 74.0741 88.615 66.3842 85.3951 59.7243L83.1025 54.9845ZM65.9349 57.0648L62.3762 54.0378C61.9284 53.6569 61.4396 53.3561 60.9273 53.1324L67.8403 47.3393L65.9349 57.0648Z" fill="white"/>
		<path d="M81.3137 87.4338C80.6651 87.1427 79.9035 87.4319 79.6122 88.0809L76.3156 95.4222C76.2411 95.588 76.2026 95.7677 76.2026 95.9495V105.713C76.2026 106.424 76.7788 107 77.4898 107C78.2009 107 78.7771 106.424 78.7771 105.713V96.2253L81.9608 89.1353C82.252 88.4869 81.9621 87.7251 81.3137 87.4338Z" fill="white"/>
		<path d="M73.8407 27.0106C74.5517 27.0106 75.1279 26.4344 75.1279 25.7234V20.2872C75.1279 19.5762 74.5517 19 73.8407 19C73.1296 19 72.5535 19.5762 72.5535 20.2872V25.7234C72.5535 26.4342 73.1298 27.0106 73.8407 27.0106Z" fill="white"/>
		<path d="M79.3358 28.291C79.5342 28.4015 79.7489 28.4537 79.9611 28.4537C80.413 28.4537 80.8515 28.2153 81.0869 27.7926L83.7319 23.0433C84.0777 22.4222 83.8546 21.6382 83.2337 21.2923C82.6125 20.9465 81.8285 21.1696 81.4827 21.7906L78.8377 26.5399C78.4917 27.1612 78.7149 27.945 79.3358 28.291V28.291Z" fill="white"/>
		<path d="M90.3238 27.8653C89.9495 27.261 89.1564 27.0746 88.5517 27.4487L83.9301 30.311C83.3258 30.6853 83.1393 31.4787 83.5136 32.083C83.7571 32.4762 84.1782 32.6926 84.6091 32.6926C84.8405 32.6926 85.0746 32.6303 85.2857 32.4996L89.9073 29.6373C90.5117 29.2632 90.6983 28.4697 90.3238 27.8653V27.8653Z" fill="white"/>
		<path d="M41.0848 89.469C39.066 86.932 37.7769 83.8878 37.3567 80.6659C37.2647 79.9612 36.6196 79.4655 35.9139 79.5558C35.209 79.6478 34.7119 80.2938 34.8039 80.9987C35.2845 84.685 36.7598 88.1684 39.0703 91.0718L44.3811 97.7463V105.629C44.3811 106.34 44.9574 106.916 45.6683 106.916C46.3792 106.916 46.9555 106.34 46.9555 105.629V97.2966C46.9555 97.0055 46.8568 96.7229 46.6756 96.4951L41.0848 89.469Z" fill="white"/>
	</g>
	<defs>
		<clipPath id="clip0">
			<rect width="88" height="88" fill="white" transform="translate(18 19)"/>
		</clipPath>
	</defs>
</svg>
