<svg width="125" height="125" viewBox="0 0 125 125" fill="none" xmlns="http://www.w3.org/2000/svg">
	<rect width="125" height="125" rx="24" fill="#9D4EDD"/>
	<path d="M104.682 61.9098H94.2166V51.1834C94.2166 50.2734 93.479 49.5356 92.5688 49.5356H88.8489V30.1821C88.8489 28.9687 87.8651 27.9851 86.6519 27.9851H21.197C19.9836 27.9851 19 28.9687 19 30.1821V72.1842C19 73.3976 19.9836 74.3812 21.197 74.3812H43.9284C43.4912 76.8932 42.5511 81.0437 40.659 85.1637C40.3466 85.8438 40.4022 86.6363 40.8062 87.2664C41.2103 87.8965 41.9071 88.2776 42.6557 88.2776H58.1504V94.0495C58.1504 94.9595 58.888 95.6973 59.7982 95.6973H83.5199V97.6967C83.5199 98.4246 84.1103 99.0149 84.8381 99.0149H104.682C105.41 99.0149 106 98.4246 106 97.6967V63.228C106 62.4999 105.41 61.9098 104.682 61.9098ZM58.1504 51.1834V69.9874H23.3939V32.379H84.4552V49.5354H59.7982C58.8882 49.5356 58.1504 50.2731 58.1504 51.1834ZM83.5199 92.4018H61.4459V90.4885H74.5361V90.6431C74.5361 91.5533 75.2736 92.2908 76.1838 92.2908C77.094 92.2908 77.8316 91.5533 77.8316 90.6431V90.4885H83.5199V92.4018V92.4018ZM83.5199 63.228V87.193H61.4459V52.8311H90.9211V61.9098H84.8381C84.1101 61.9098 83.5199 62.4999 83.5199 63.228ZM103.364 96.3785H86.1563V94.8264H93.4419V94.9575C93.4419 95.6856 94.032 96.2757 94.7601 96.2757C95.4879 96.2757 96.0783 95.6856 96.0783 94.9575V94.8264H103.364V96.3785ZM103.364 92.1898H86.1563V68.7347H103.364V92.1898ZM103.364 66.0984H86.1563V64.5462H103.364V66.0984Z" fill="white"/>
</svg>
